<?xml version="1.0" encoding="utf-8"?>
<!-- Generator: Adobe Illustrator 21.1.0, SVG Export Plug-In . SVG Version: 6.00 Build 0)  -->
<svg version="1.1" id="Layer_1" xmlns="http://www.w3.org/2000/svg" xmlns:xlink="http://www.w3.org/1999/xlink" x="0px" y="0px"
	 viewBox="0 0 500 381" style="enable-background:new 0 0 500 381;" xml:space="preserve">
<style type="text/css">
	.st0{fill:#E2231A;}
</style>
<g id="Layer_2">
</g>
<g id="Layer_1_copy">
	<g>
		<path class="st0" d="M273.5,273.6h3c14.8,0,23.3-9.2,23.3-25.3c0-21.4-16.7-23.7-23.8-23.7c-7.2,0-9.6,0.4-9.6,5.3V266
			C266.3,272.7,269.9,273.6,273.5,273.6z"/>
		<path class="st0" d="M256.5,191.5c3.4,0,7.9-4.1,11.9-11.1c3.8-6.5,6.3-14,6.3-18.9c0-2.1-0.5-5.6-4.1-5.6
			c-7.7,0-18.2,19.3-18.2,30.2C252.4,189.7,253.8,191.5,256.5,191.5z"/>
		<path class="st0" d="M130.4,248.6c0,15,7.6,25.4,18.4,25.4c12.2,0,18.7-8.8,18.7-25.4c0-14.1-7.9-24.4-18.7-24.4
			C137.6,224.2,130.4,233.8,130.4,248.6z"/>
		<path class="st0" d="M345.3,274c12.2,0,18.7-8.8,18.7-25.4c0-14.1-7.9-24.4-18.7-24.4c-11.2,0-18.4,9.6-18.4,24.4
			C326.9,263.6,334.5,274,345.3,274z"/>
		<path class="st0" d="M357.2,160.2c0-2.1-0.9-3.2-2.8-3.2c-3.2,0-6.4,3.2-7.3,4.2c-3.3,3.3-5.9,6.9-8.2,11.4c2.1-0.3,5.1-1.1,9-2.3
			C353.6,168.4,357.2,164.5,357.2,160.2z"/>
		<path class="st0" d="M388.2,155.7c-3.2,0-6.6,2.7-9.3,7.5c-1.8,3.1-2.6,5.9-2.6,8.3c0,2.8,1.1,4.4,2.9,4.4c2.3,0,5.4-0.9,9.4-7.5
			c2.3-4.1,2.8-7.3,2.8-9.2C391.4,157,390.3,155.7,388.2,155.7z"/>
		<path class="st0" d="M361.6,199.9c0,3.2,3.8,6.4,11.1,6.4c5.6,0,9.4-2.4,9.4-5.9c0-1.9-0.6-3-4.3-5.3c-1.4-0.8-3.1-1.7-4.6-2.4
			c-0.9-0.4-1.7-0.9-2.5-1.3C367.9,192.5,361.6,195.2,361.6,199.9z"/>
		<path class="st0" d="M0,0.5v380.8h500V0.5H0z M394,109.7c0-1.7,0.9-2,1.7-2c1.2,0,1.6,0.8,1.9,1.7c3.8,12.8,14.4,14.2,18.7,14.2
			c6.6,0,13.7-3.2,13.7-12.1c0-8.8-6.3-11-15.1-14.1l-0.6-0.2c-8.8-3.1-18.2-7.5-18.2-19.6c0-11.1,10.2-16.1,19.6-16.1
			c4.1,0,6.8,1,8.8,1.7c1.2,0.4,2.1,0.7,2.9,0.7c1,0,1.7-0.6,2.2-2c0.4-1,1-1.1,1.3-1.1c0.9,0,1.3,0.4,1.5,1.4l2,14.1
			c0.1,0.5,0,0.9-0.3,1.2s-0.6,0.5-1,0.5c-0.7,0-1.2-0.4-1.6-1.2C428,69.7,423,66,416.4,66s-10.8,3.5-10.8,9c0,6.2,4.4,10,15,13.1
			c13,3.7,19.3,10.4,19.3,20.4c0,18.5-17.6,19.9-23,19.9c-6.3,0-10.8-2.1-13.8-3.4c-1.6-0.7-2.8-1.3-3.7-1.3c-0.9,0-1.7,0.8-2.3,2.3
			c-0.4,0.7-0.9,1.1-1.6,1.1c-1,0-1.6-0.7-1.6-1.7v-15.7L394,109.7L394,109.7z M412.3,190.5c4.4,0,8.2-3.4,11-6.3
			c0.2-0.2,0.7-0.6,1.3-0.6c0.8,0,1.5,0.7,1.5,1.5c0,0.6-0.3,1.1-0.6,1.5l0,0l0,0c-3.4,4.2-8.3,9.1-16.7,9.1c-5.6,0-9.4-3.9-9.4-9.6
			c0-16.3,16.7-32.9,28.7-32.9c4.7,0,7.4,2.3,7.4,6.3c0,6.3-5.2,11.3-15,14.4c-2.8,0.9-8.4,2.1-11.5,2.7c-0.9,2.1-1.9,4.8-1.9,7.7
			C407.1,188.1,409,190.5,412.3,190.5z M396.9,159c0.1,0.7,0.3,1.7,0.3,3.2c0,2.4-0.5,4.8-1.6,7.2c-3.2,6.8-8.4,10.2-15.6,10.2
			c-0.8,0-1.8-0.1-2.7-0.3c-0.9-0.1-1.9-0.3-2.6-0.3c-2.9,0-4.3,0.9-4.3,2.7c0,2.1,4.1,4.1,9.8,6.9l0.2,0.1c6.3,3.2,9.4,6.4,9.4,10
			c0,6.7-7,11.2-17.5,11.2c-10.4,0-17.9-4.3-17.9-10.2c0-6.2,9.5-9.5,13.2-10.5c-2.5-1.9-3.9-3.5-3.9-6.2c0-3.5,3.4-5.5,6.6-6.3
			c1.2-0.3,2.2-0.6,2.2-0.9c0-0.1-0.2-0.3-0.3-0.5c-0.1-0.1-0.2-0.3-0.2-0.4c-0.6-1-1.5-3.1-1.5-5.7c0-2.7,0.5-5.2,3.3-9
			c4.1-5.5,10.1-7.5,14.1-7.5c3.3,0,5.1,0.7,6.8,1.6c0.4,0.2,0.9,0.4,1.1,0.4c0.4,0,0.8-0.2,1.2-0.4c0.1-0.1,0.3-0.1,0.4-0.2
			c2-1.3,4.1-1.9,6-1.9c2.1,0,3.3,1,3.3,2.7s-1.1,2.9-2.7,2.9c-0.8,0-1.6-0.3-2.4-0.7c-0.7-0.3-1.5-0.7-2.3-0.7
			c-1.4,0-2.4,0.6-2.4,1.3C396.8,158.2,396.8,158.6,396.9,159z M193.2,267.8c0.1,6.2,3.7,6.8,6.5,7.3c0.9,0.2,1.4,0.6,1.4,1.3
			c0,0.8-0.5,1.3-1.3,1.3H182c-0.4,0-1.2-0.2-1.2-1.3c0-0.7,0.5-1.2,1.4-1.3c4.1-0.6,5.8-2.8,5.8-7.3l0.3-39.4
			c0-3.3-1.3-4.6-5.3-5.1c-1.2-0.2-1.4-0.9-1.4-1.5c0-0.8,0.5-1.3,1.3-1.3h15.2h0.1l0.1,0.1l35.3,41.4l-0.7-31.6
			c-0.1-5.2-2.2-6.5-6.5-7.3c-0.9-0.2-1.4-0.6-1.4-1.3c0-0.8,0.5-1.3,1.3-1.3h17.8c0.7,0,1.2,0.5,1.2,1.3c0,0.7-0.5,1.2-1.4,1.3
			c-4.1,0.6-5.8,2.8-5.8,7.3l-0.3,47.1v0.3h-0.3h-3.1h-0.1l-0.1-0.1l-41.5-48.8L193.2,267.8z M245,156.9c-0.3,0.8-0.8,1.1-1.6,1.1
			c-0.9,0-1.6-0.7-1.6-1.6c0-0.3,0-0.8,0.1-1.2c0-0.4,0.1-0.8,0.1-1.1c0-7.9-4.4-12.6-11.8-12.6c-12.7,0-28.2,21.2-28.2,38.5
			c0,4.4,1.2,11.8,9.2,11.8c8.5,0,18.8-5.7,22.9-12.7c0.7-1.2,1.3-1.6,2.2-1.6c0.5,0,0.9,0.2,1.2,0.6c0.2,0.3,0.4,0.9,0,1.8
			l-5.6,16.3c-0.3,0.5-0.8,0.8-1.6,0.8c-0.7,0-1.3-0.5-1.3-1.5c-0.1-2.3-0.3-3.8-1.3-3.8s-2.3,0.5-3.6,1c-5.6,2.3-9.4,3.2-13.7,3.2
			c-10.5,0-17-6.9-17-17.9c0-9.6,4.1-19.7,11.2-27.8c7.3-8.3,16.8-13,26.1-13c5.4,0,9.8,1.9,13,5.6c0.4,0.4,0.6,0.5,1,0.5
			c0.6,0,1.5-1.3,2.2-2.2l0.3-0.4c0.5-0.8,0.9-1.1,1.4-1.1c0.4,0,0.8,0.2,1,0.5s0.4,0.8,0.1,1.8L245,156.9z M270.1,152
			c6.3,0,10.4,5,10.4,12.7c0,6.9-2.6,14.7-7,20.7c-4.7,6.5-10.8,10.2-16.8,10.2c-6.2,0-10.3-5.1-10.3-12.7
			C246.5,166.7,257.8,152,270.1,152z M251,223.2c-0.9,0-1.5-0.6-1.5-1.3c0-0.8,0.5-1.3,1.2-1.3h27c6.2,0,15.1,1.1,22.1,6.4
			c6.6,4.9,9.9,12.2,9.9,21.8c0,10.3-3.8,18.1-11.4,23.3c-7.8,5.4-16.8,5.9-20.3,5.9h-27.3c-0.7,0-1.2-0.5-1.2-1.3
			c0-0.7,0.5-1.2,1.5-1.3c4-0.4,5.8-2.7,5.8-7.3v-37.4C256.8,225.8,254.9,223.5,251,223.2z M309.3,195.3c-1.3,0.5-2.6,0.5-3.3,0.5
			c-1.7,0-2.8-1.4-2.8-2.7c0-1.2,0.6-2.7,1-3.6c4.9-11.8,9.7-22.9,14.8-34.6c1.7-3.9,3.4-7.8,5.1-11.8c0.2-0.5,0.4-1,0.4-1.2
			s-0.1-0.3-0.3-0.4c-0.7-0.2-1.9-0.3-2.8-0.4c-0.3,0-0.6-0.1-0.8-0.1c-0.8,0-1.5-0.6-1.5-1.3s0.7-1.3,1.6-1.5
			c1.3-0.2,3-0.3,4.5-0.4c0.8-0.1,1.5-0.1,2-0.1c1.5-0.1,3.6-0.3,4.7-0.3c0.8,0,1.3,0.4,1.3,1.1c0,0.6-0.2,1.2-0.6,2.1l-21.1,48.8
			c0,0.1-0.1,0.2-0.1,0.2c-0.1,0.3-0.2,0.5-0.2,0.7c0,0.1,0,0.1,0.1,0.1c0.2,0,0.7-0.3,0.9-0.4c2-1.1,3.5-2.3,4.6-3.2
			c0.5-0.4,0.9-0.8,1.4-1.1c0.4-0.3,0.7-0.4,1.1-0.4c0.7,0,1.1,0.5,1.1,1.3c0,0.5-0.2,1-0.6,1.4
			C316.9,191.5,313.5,193.8,309.3,195.3z M340.4,190.5c4.4,0,8.2-3.4,11-6.3c0.2-0.2,0.7-0.6,1.3-0.6c0.8,0,1.5,0.7,1.5,1.5
			c0,0.6-0.3,1.1-0.6,1.5c-3.3,4.2-8.3,9.1-16.7,9.1c-5.5,0-9.4-4-9.4-9.6c0-16.3,16.7-32.9,28.7-32.9c4.7,0,7.3,2.3,7.3,6.3
			c0,6.3-5.2,11.3-15,14.4c-2.8,0.9-8.4,2.1-11.5,2.7c-0.9,2.1-1.9,4.8-1.9,7.7C335.1,188.1,337.1,190.5,340.4,190.5z M345.3,220.1
			c16.4,0,28.8,12.3,28.8,28.5c0,17.7-11.6,29.6-28.8,29.6c-16.8,0-28.5-12.2-28.5-29.6C316.8,232.6,329.3,220.1,345.3,220.1z
			 M383.8,61.4c4,0,6.4,2.8,6.4,7.3c0,5-3.2,10.7-9.4,11.8c-0.1,0-0.2,0-0.3,0c-0.8,0-1.4-0.5-1.4-1.2s0.4-1.2,1.1-1.6
			c3.5-1.4,5.6-3.9,5.6-6.5c0-0.2,0-0.3-0.1-0.4c-0.6,0.8-1.8,1.2-2.8,1.2c-2.5,0-5.1-1.6-5.1-5.1C377.9,62.8,381.1,61.4,383.8,61.4
			z M316.1,69c6.5-4.8,15.6-7.6,24.7-7.6c9.8,0,14.6,2.4,20.3,5.7c1.1,0.7,2.1,1.2,2.7,1.2c1.3,0,1.9-1.6,2.2-2.5
			c0.2-0.7,0.6-1.5,1.7-1.5c0.8,0,1.5,0.7,1.5,1.6v14.5c0,1-0.7,1.7-1.5,1.7c-0.9,0-1.5-0.5-2.1-1.6c-4.7-9.6-13.1-14.5-24.8-14.5
			c-17.5,0-25.4,15.3-25.4,29.5c0,14.1,7.5,28.3,24.4,28.3c3.9,0,9.1-0.5,14.1-4.1c1.2-1,2.1-2.1,2.1-4.4v-8.2
			c0-4.7-3.5-5.9-9.4-6.3c-1.1,0-1.9-0.8-1.9-1.9c0-0.9,0.8-1.6,1.9-1.6h27.2c1.2,0,1.6,0.8,1.6,1.5c0,1-0.5,1.7-1.3,1.7l0,0
			c-3.8,0.3-7.3,1-7.3,6.1v12.2v0.1l-0.1,0.1c-4.2,3.5-13.4,9.5-26.8,9.5c-9.5,0-18.2-2.5-24.3-7.1c-7.8-5.8-11.7-14.6-11.7-26.2
			C303.7,84,308,75,316.1,69z M303,137.9c0.8-0.1,1.5-0.1,2-0.1c1.5-0.1,3.6-0.3,4.7-0.3c0.8,0,1.3,0.4,1.3,1.1
			c0,0.6-0.2,1.2-0.6,2.1l-21.1,48.8c0,0.1-0.1,0.2-0.1,0.2c-0.1,0.3-0.2,0.5-0.2,0.7c0,0.1,0,0.1,0.1,0.1s0.5-0.1,0.9-0.4
			c2-1.1,3.5-2.3,4.6-3.2c0.5-0.4,0.9-0.8,1.4-1.1c0.4-0.3,0.7-0.4,1.1-0.4c0.7,0,1.1,0.5,1.1,1.3c0,0.5-0.2,1-0.6,1.4
			c-2.8,3.3-6.2,5.7-10.4,7.2c-1.3,0.5-2.6,0.5-3.3,0.5c-1.7,0-2.8-1.4-2.8-2.7c0-1.1,0.5-2.6,1-3.6c4.9-11.8,9.7-22.8,14.8-34.5
			c1.7-3.9,3.4-7.9,5.2-11.9c0.2-0.5,0.4-1,0.4-1.2s-0.1-0.3-0.3-0.4c-0.7-0.2-1.9-0.3-2.8-0.4c-0.3,0-0.6-0.1-0.9-0.1
			c-0.9,0-1.5-0.5-1.5-1.3c0-0.7,0.7-1.3,1.6-1.5C299.9,138.1,301.6,138,303,137.9z M225.5,125c4.8-0.6,6.1-2.5,6.4-9.3
			c0.5-14.3,0.5-32.1,0.5-45.1c0-4.1-3.5-5.5-6.4-5.9c-1.1-0.2-1.7-0.7-1.7-1.6c0-0.8,0.7-1.3,1.7-1.3h16.8h0.1l0.1,0.1l41.9,47
			c0-4.2-0.2-26.5-0.8-34.8c-0.5-7.6-3.4-8.6-7.7-9.3c-0.7-0.1-1.3-0.8-1.3-1.5c0-0.8,0.5-1.5,1.2-1.5h20.3c1.1,0,1.7,0.5,1.7,1.3
			c0,0.9-0.6,1.4-1.7,1.6c-4.8,0.6-6.1,2.5-6.4,9.3c-0.5,14.1-0.5,53.3-0.5,53.7v0.3h-0.3h-3.1h-0.1l-0.1-0.1L237,73.2
			c0,4.9,0.3,34.1,0.8,42.5c0.5,7.6,3.4,8.6,7.7,9.3c0.7,0.1,1.3,0.8,1.3,1.5c0,0.8-0.5,1.5-1.2,1.5h-20.3c-1.1,0-1.7-0.5-1.7-1.3
			C223.8,125.7,224.4,125.2,225.5,125z M190,64.7c-1.1-0.2-1.7-0.7-1.7-1.6c0-0.8,0.7-1.3,1.7-1.3h23.7c1.1,0,1.7,0.5,1.7,1.3
			c0,0.9-0.6,1.4-1.7,1.6c-4.7,0.6-6.4,2.7-6.4,8.1v44.1c0,5.3,1.7,7.5,6.4,8.1c1.1,0.2,1.7,0.7,1.7,1.6c0,0.8-0.7,1.3-1.7,1.3H190
			c-1.1,0-1.7-0.5-1.7-1.3c0-0.9,0.6-1.4,1.7-1.6c4.7-0.6,6.4-2.7,6.4-8.1V72.8C196.4,67.5,194.7,65.3,190,64.7z M61,192.8
			c0-1.3,1-2.1,2.5-2.3c5.2-0.8,13.1-2,13.6-17c0.3-6.3,0.4-19.8,0.4-37.1c0-26.2-0.1-48.7-0.3-53.3c-0.5-15-8.4-16.2-13.6-17
			c-1.6-0.1-2.5-1-2.5-2.3s1.1-2.1,2.8-2.1c0.6,0,2.1,0,4.3,0.1c4.8,0.1,12.9,0.3,19.6,0.3c11.2,0,15.3,0,24.5-0.4
			c1.3,0,2.3,0.9,2.3,2.1c0,1.4-0.8,2.2-2.5,2.5c-14.4,2-15.7,8-15.8,15.6c-0.3,16.6-0.4,40.9-0.4,42c0,0.4,0.1,1.6,0.8,1.6
			c0.4,0,0.7-0.1,1.2-0.5c5.3-4.4,21.4-20.3,33.8-33.1c5.3-5.5,8.7-9.7,11.7-14.4c1.1-1.7,2.1-3.6,2.1-5.8s-1.2-3-3.2-3.8
			c-1.8-0.7-3.5-1-5.2-1.3c-0.3-0.1-0.6-0.1-0.9-0.2c-1.7-0.3-2.8-1.3-2.8-2.5c0-1.4,1.2-2.4,3.1-2.4c0.6,0,1.7,0,3.4,0.1
			c4,0.1,10.6,0.3,18.2,0.3c3.6,0,8.5-0.1,12.4-0.3c2.9-0.1,5.4-0.2,6.7-0.2c1.8,0,3,0.9,3,2.4c0,1.2-0.6,1.9-1.8,2.3
			c-5.5,1.3-11.2,2.7-26.3,16.4c-12,10.8-33.2,32.4-37.4,37.1c2.9,3.4,47,56,55,62.4c7.9,6.3,11.9,7.6,18.4,8.3
			c1.2,0,2.1,1.1,2.1,2.4c0,1.3-0.7,2-2.1,2h-34.2h-0.1l-0.1-0.1c-16-19.3-44.1-52.8-53.3-60.5c-0.7-0.6-1.6-0.9-2.4-0.9
			c-0.7,0-1.9,0.3-2,2.4c-0.1,1.7-0.3,9.8-0.3,18.7c0,8.8,0.3,16.9,0.5,20c0.8,8.5,3.8,13.8,17.4,15.6c1.7,0.3,2.5,1.1,2.5,2.5
			c0,1.2-1,2.1-2.3,2.1c-9.1-0.4-14.8-0.4-26.1-0.4c-6.7,0-14.8,0.2-19.6,0.3c-2.2,0.1-3.7,0.1-4.3,0.1C62,195,61,194.2,61,192.8z
			 M177.6,248.6c0,17.7-11.6,29.6-28.8,29.6c-16.8,0-28.5-12.2-28.5-29.6c0-16,12.5-28.5,28.5-28.5
			C165.3,220.1,177.6,232.3,177.6,248.6z M64.7,276.5c0-0.7,0.7-1.3,1.4-1.3l0,0c4-0.4,5.8-2.7,5.8-7.3v-37.4c0-4.7-1.9-7-5.8-7.3
			c-0.8,0-1.5-0.6-1.5-1.3c0-0.8,0.5-1.3,1.2-1.3h21.8c0.9,0,1.6,0.6,1.6,1.5c0,0.7-0.5,1.2-1.5,1.3c-1.9,0.1-6.5,0.8-6.5,5.7v38.8
			c0,4.2,1.6,5.9,11.8,5.9c9.2,0,16.1-0.9,20.3-12.8c0.3-0.8,1-1.2,1.7-1.2c0.5,0,0.8,0.2,1.1,0.5c0.3,0.4,0.4,0.9,0.2,1.5l-3,15.9
			v0.2h-0.2H66C65.2,277.8,64.7,277.2,64.7,276.5z M434.3,315.1v9.4v0.3H434H65.8h-0.3v-0.3v-9.4v-0.3h0.3H434h0.3V315.1z
			 M434.3,297.8v4.8v0.3H434H65.8h-0.3v-0.3v-4.8v-0.3h0.3H434h0.3V297.8z M440.4,223.2c-4.1,0.6-5.8,2.8-5.8,7.3l-0.3,47.1v0.3H434
			h-3.1h-0.1l-0.1-0.1L389.2,229l0.4,39c0.1,6.2,3.7,6.8,6.5,7.3c0.9,0.2,1.4,0.6,1.4,1.3c0,0.8-0.5,1.3-1.3,1.3h-17.8
			c-0.4,0-1.2-0.2-1.2-1.3c0-0.7,0.5-1.2,1.4-1.3c4.1-0.6,5.8-2.8,5.8-7.3l0.3-39.4c0-3.3-1.3-4.6-5.3-5.1c-1.2-0.2-1.4-0.9-1.4-1.5
			c0-0.8,0.5-1.3,1.3-1.3h15.2h0.1l0.1,0.1l35.3,41.4l-0.7-31.6c-0.1-5.2-2.1-6.5-6.5-7.3c-0.9-0.2-1.4-0.6-1.4-1.3
			c0-0.8,0.5-1.3,1.3-1.3h17.8c0.7,0,1.2,0.5,1.2,1.3C441.8,222.5,441.3,223,440.4,223.2z"/>
		<path class="st0" d="M429.2,160.2c0-2.1-0.9-3.2-2.8-3.2c-3.1,0-6.4,3.2-7.3,4.2c-3.3,3.3-5.8,6.9-8.1,11.4c2.1-0.3,5.1-1.1,9-2.3
			C425.5,168.4,429.2,164.5,429.2,160.2z"/>
	</g>
</g>
</svg>
